<?xml version="1.0" encoding="UTF-8"?>
<svg version="1.1" xmlns="http://www.w3.org/2000/svg" width="1280" height="720">
<path d="M0 0 C422.4 0 844.8 0 1280 0 C1280 237.6 1280 475.2 1280 720 C857.6 720 435.2 720 0 720 C0 482.4 0 244.8 0 0 Z " fill="#FE0000" transform="translate(0,0)"/>
<path d="M0 0 C0 198.66 0 397.32 0 602 C-422.4 602 -844.8 602 -1280 602 C-1280 592.76 -1280 583.52 -1280 574 C-1266.88888889 567.44444444 -1266.88888889 567.44444444 -1261 565 C-1255.04013219 562.38568161 -1249.11042171 559.70300657 -1243.1796875 557.0234375 C-1209.38717561 541.77487758 -1209.38717561 541.77487758 -1195.85107422 535.99365234 C-1191.40804301 534.08848198 -1187.05319776 532.0842291 -1182.75170898 529.87646484 C-1179.89380096 528.44651504 -1176.94436474 527.23973252 -1174 526 C-1170.99519942 524.67744505 -1167.99814756 523.33755741 -1165 522 C-1163.50010703 521.33309257 -1162.00010775 520.66642417 -1160.5 520 C-1159.7575 519.67 -1159.015 519.34 -1158.25 519 C-1156 518 -1153.75 517 -1151.5 516 C-1150.79777313 515.6877951 -1150.09554626 515.37559021 -1149.37203979 515.05392456 C-1147.8874321 514.39429629 -1146.40255151 513.73528148 -1144.91726685 513.07717896 C-1139.51278567 510.68081496 -1134.12438864 508.25062166 -1128.7421875 505.8046875 C-1126.97450032 505.00256718 -1125.2067574 504.2005697 -1123.43896484 503.39868164 C-1122.52894714 502.98586945 -1121.61892944 502.57305725 -1120.68133545 502.1477356 C-1092.99463335 489.59119988 -1092.99463335 489.59119988 -1079.74951172 483.94287109 C-1075.33250518 482.05293202 -1071.00674637 480.06028538 -1066.73168945 477.86645508 C-1064.56684537 476.78327001 -1062.34577083 475.84811561 -1060.11328125 474.9140625 C-1057.21760009 473.66158673 -1054.36183128 472.32788971 -1051.5 471 C-1047.02604488 468.92645459 -1042.54079074 466.92110377 -1038 465 C-1035.86452804 464.05928094 -1033.73274444 463.11054819 -1031.6015625 462.16015625 C-1030.09483446 461.48823699 -1028.58778005 460.81704665 -1027.0798645 460.14779663 C-1021.84311139 457.823581 -1016.61423645 455.48249021 -1011.390625 453.12890625 C-1009.74552616 452.388179 -1008.10042516 451.64745653 -1006.45532227 450.90673828 C-1005.60527618 450.52390686 -1004.7552301 450.14107544 -1003.87942505 449.74664307 C-990.44477793 443.69644428 -977.00783796 437.65140699 -963.5625 431.625 C-961.83531738 430.85071655 -961.83531738 430.85071655 -960.07324219 430.06079102 C-955.42840541 427.97966737 -950.78229243 425.9017853 -946.12890625 423.83984375 C-942.52744842 422.24119368 -938.94764996 420.59971307 -935.375 418.9375 C-930.94257645 416.88583295 -926.49767308 414.90286169 -922 413 C-919.86452804 412.05928094 -917.73274444 411.11054819 -915.6015625 410.16015625 C-914.09735599 409.48936146 -912.59279385 408.81936058 -911.08728027 408.15150452 C-905.7758647 405.79493432 -900.47500856 403.41592012 -895.1796875 401.0234375 C-861.38717561 385.77487758 -861.38717561 385.77487758 -847.85107422 379.99365234 C-843.40804301 378.08848198 -839.05319776 376.0842291 -834.75170898 373.87646484 C-831.89380096 372.44651504 -828.94436474 371.23973252 -826 370 C-822.99519942 368.67744505 -819.99814756 367.33755741 -817 366 C-815.50010703 365.33309257 -814.00010775 364.66642417 -812.5 364 C-811.7575 363.67 -811.015 363.34 -810.25 363 C-808 362 -805.75 361 -803.5 360 C-802.44706757 359.53189659 -802.44706757 359.53189659 -801.37286377 359.05433655 C-799.88546347 358.39343872 -798.39782899 357.73306741 -796.90985107 357.07347107 C-791.5800746 354.70941288 -786.26345647 352.31753485 -780.953125 349.91015625 C-779.21672614 349.1237558 -777.4803162 348.3373798 -775.74389648 347.55102539 C-774.84645721 347.14449738 -773.94901794 346.73796936 -773.02438354 346.31912231 C-759.17197999 340.04484944 -745.31587834 333.7791387 -731.4375 327.5625 C-730.2937793 327.05017822 -729.15005859 326.53785645 -727.97167969 326.01000977 C-719.67148776 322.29527809 -711.36396108 318.59759305 -703.04296875 314.9296875 C-700.96892673 314.0282434 -700.96892673 314.0282434 -698.98828125 312.8203125 C-696.46316145 311.77851455 -695.51195472 311.97769285 -693 313 C-691.55001134 313.99475966 -690.13670026 315.04376169 -688.75 316.125 C-670.24808109 329.29814987 -645.7720947 334.19002408 -623.44873047 330.58837891 C-618.14914425 329.48015731 -613.07706463 327.86489252 -608 326 C-607.36771484 325.77538086 -606.73542969 325.55076172 -606.08398438 325.31933594 C-588.27816031 318.86072922 -573.31370012 306.81434018 -563 291 C-562.38125 290.05125 -561.7625 289.1025 -561.125 288.125 C-554.09626469 276.7336014 -549.64323752 263.82428143 -547.875 250.5625 C-547.70742188 249.32628906 -547.53984375 248.09007812 -547.3671875 246.81640625 C-547.24601563 245.88699219 -547.12484375 244.95757812 -547 244 C-546.11957031 243.67386719 -545.23914063 243.34773437 -544.33203125 243.01171875 C-543.17058594 242.57472656 -542.00914062 242.13773438 -540.8125 241.6875 C-539.66394531 241.25824219 -538.51539063 240.82898438 -537.33203125 240.38671875 C-534.33316816 239.13865732 -531.7470083 237.71511324 -529 236 C-527.3209973 235.25736419 -525.64064744 234.51705478 -523.9453125 233.8125 C-521.82405426 232.92651262 -519.72449505 231.99886016 -517.625 231.0625 C-513 229 -513 229 -511.08728027 228.15150452 C-505.7758647 225.79493432 -500.47500856 223.41592012 -495.1796875 221.0234375 C-461.38717561 205.77487758 -461.38717561 205.77487758 -447.85107422 199.99365234 C-443.39964754 198.08488201 -439.0370204 196.07598226 -434.72729492 193.86425781 C-432.56393481 192.78181332 -430.34423844 191.84747447 -428.11328125 190.9140625 C-425.21760009 189.66158673 -422.36183128 188.32788971 -419.5 187 C-415.02604488 184.92645459 -410.54079074 182.92110377 -406 181 C-403.86452804 180.05928094 -401.73274444 179.11054819 -399.6015625 178.16015625 C-398.09735599 177.48936146 -396.59279385 176.81936058 -395.08728027 176.15150452 C-389.7758647 173.79493432 -384.47500856 171.41592012 -379.1796875 169.0234375 C-345.38717561 153.77487758 -345.38717561 153.77487758 -331.85107422 147.99365234 C-327.39964754 146.08488201 -323.0370204 144.07598226 -318.72729492 141.86425781 C-316.56393481 140.78181332 -314.34423844 139.84747447 -312.11328125 138.9140625 C-309.21760009 137.66158673 -306.36183128 136.32788971 -303.5 135 C-299.02604488 132.92645459 -294.54079074 130.92110377 -290 129 C-287.86452804 128.05928094 -285.73274444 127.11054819 -283.6015625 126.16015625 C-282.09735599 125.48936146 -280.59279385 124.81936058 -279.08728027 124.15150452 C-273.7758647 121.79493432 -268.47500856 119.41592012 -263.1796875 117.0234375 C-229.38717561 101.77487758 -229.38717561 101.77487758 -215.85107422 95.99365234 C-211.40804301 94.08848198 -207.05319776 92.0842291 -202.75170898 89.87646484 C-199.89380096 88.44651504 -196.94436474 87.23973252 -194 86 C-190.99519942 84.67744505 -187.99814756 83.33755741 -185 82 C-183.50010703 81.33309257 -182.00010775 80.66642417 -180.5 80 C-179.7575 79.67 -179.015 79.34 -178.25 79 C-176 78 -173.75 77 -171.5 76 C-170.79804504 75.68793106 -170.09609009 75.37586212 -169.37286377 75.05433655 C-167.88546347 74.39343872 -166.39782899 73.73306741 -164.90985107 73.07347107 C-159.5800746 70.70941288 -154.26345647 68.31753485 -148.953125 65.91015625 C-147.21672614 65.1237558 -145.4803162 64.3373798 -143.74389648 63.55102539 C-142.84645721 63.14449738 -141.94901794 62.73796936 -141.02438354 62.31912231 C-127.17197999 56.04484944 -113.31587834 49.7791387 -99.4375 43.5625 C-98.2937793 43.05017822 -97.15005859 42.53785645 -95.97167969 42.01000977 C-88.57186208 38.69823853 -81.16767969 35.39658053 -73.75 32.125 C-69.94032017 30.43403685 -66.15677883 28.68992612 -62.375 26.9375 C-57.94257645 24.88583295 -53.49767308 22.90286169 -49 21 C-43.73233438 18.68222549 -38.48366802 16.32178747 -33.2379303 13.95489502 C-29.89181338 12.44529959 -26.54362369 10.94032291 -23.19555664 9.43505859 C-21.42708332 8.63912262 -19.65918717 7.8419031 -17.8918457 7.04345703 C-15.32657402 5.8848862 -12.75922044 4.73104758 -10.19140625 3.578125 C-9.00243492 3.03916595 -9.00243492 3.03916595 -7.78944397 2.48931885 C-2.22767602 0 -2.22767602 0 0 0 Z " fill="#FEFEFE" transform="translate(1280,118)"/>
<path d="M0 0 C0 29.7 0 59.4 0 90 C-20.375 99.1875 -20.375 99.1875 -26.74365234 102.05541992 C-28.44115262 102.82194368 -30.13858536 103.58861702 -31.8359375 104.35546875 C-32.6916333 104.74013306 -33.5473291 105.12479736 -34.42895508 105.52111816 C-39.62418344 107.87098941 -44.74112535 110.33808769 -49.82078552 112.92877197 C-52.70713223 114.34760226 -55.66312363 115.47342093 -58.6875 116.5625 C-62.22537586 117.88402506 -65.57274799 119.17966945 -68.8125 121.125 C-71.71533297 122.83254881 -74.52087614 123.98096957 -77.68212891 125.10913086 C-80.42226544 126.16229688 -83.05266483 127.38309465 -85.7109375 128.62890625 C-93.00824356 132.01901741 -100.35504063 135.29063668 -107.7119751 138.54891968 C-111.66072327 140.29818973 -115.60759212 142.05169205 -119.5546875 143.8046875 C-120.34865936 144.15724106 -121.14263123 144.50979462 -121.96066284 144.87303162 C-129.07086544 148.03053995 -136.18004061 151.19030218 -143.28271484 154.36471558 C-145.06668507 155.16145592 -146.85168507 155.95588926 -148.63671875 156.75024414 C-154.46146612 159.35616528 -160.21300821 162.0487307 -165.88671875 164.97021484 C-167.85593584 165.92979868 -169.80874141 166.71541429 -171.875 167.4375 C-175.40405092 168.68766986 -178.66534035 170.29924 -182 172 C-185.86295779 173.96764891 -189.64316894 175.69654628 -193.72851562 177.12719727 C-196.44641693 178.17153273 -199.05450258 179.38594924 -201.69140625 180.62109375 C-208.9954823 184.01319934 -216.34865714 187.28780952 -223.7119751 190.54891968 C-227.66072327 192.29818973 -231.60759212 194.05169205 -235.5546875 195.8046875 C-236.34865936 196.15724106 -237.14263123 196.50979462 -237.96066284 196.87303162 C-245.07086544 200.03053995 -252.18004061 203.19030218 -259.28271484 206.36471558 C-261.06668507 207.16145592 -262.85168507 207.95588926 -264.63671875 208.75024414 C-270.45883031 211.35498605 -276.2084269 214.04601465 -281.88061523 216.96411133 C-284.48804774 218.2385424 -287.15014197 219.21800859 -289.87890625 220.1953125 C-296.10204688 222.55620931 -302.09004185 225.51371207 -308 228.5625 C-311.34044912 230.25632271 -314.64993343 231.64704115 -318.1875 232.875 C-322.43675422 234.35945392 -326.46641024 236.09946787 -330.53125 238.03125 C-336.76063102 240.97025564 -343.02065116 243.83518151 -349.30078125 246.6640625 C-350.19649338 247.06793182 -351.09220551 247.47180115 -352.01506042 247.88790894 C-355.71772866 249.55677224 -359.42104358 251.22418894 -363.12524414 252.88964844 C-365.87206958 254.12515677 -368.6177379 255.36320826 -371.36328125 256.6015625 C-372.18331131 256.9693985 -373.00334137 257.3372345 -373.84822083 257.71621704 C-378.88673821 259.99091567 -383.83988643 262.39463238 -388.76066589 264.91439819 C-390.81384011 265.90975196 -392.85080649 266.73911486 -395 267.5 C-398.03501575 268.57830899 -400.82794843 269.89226956 -403.6875 271.375 C-407.60643407 273.38889667 -411.55889241 275.02374144 -415.6875 276.5625 C-419.16876451 277.86238873 -422.4561649 279.11712402 -425.625 281.0625 C-428.47942643 282.70115221 -430.91942349 283.74649405 -434 284.8125 C-438.31749082 286.31817475 -442.41411487 288.07182428 -446.54296875 290.03515625 C-452.76823519 292.9733644 -459.02431093 295.83694287 -465.30078125 298.6640625 C-466.19650848 299.06793686 -467.09223572 299.47181122 -468.0151062 299.88792419 C-471.71775713 301.55678695 -475.42105817 303.2241955 -479.12524414 304.88964844 C-481.87206958 306.12515677 -484.6177379 307.36320826 -487.36328125 308.6015625 C-488.18331131 308.9693985 -489.00334137 309.3372345 -489.84822083 309.71621704 C-494.88673821 311.99091567 -499.83988643 314.39463238 -504.76066589 316.91439819 C-506.8138143 317.90973945 -508.85080999 318.73918197 -511 319.5 C-514.13622099 320.61285261 -517.03779661 321.98277388 -520 323.5 C-523.56272933 325.32203509 -527.08285171 326.84519561 -530.8515625 328.17578125 C-534.51913375 329.58279495 -538.03966597 331.31797851 -541.58203125 333.01171875 C-544 334 -544 334 -547 334 C-547.03867188 335.28970703 -547.03867188 335.28970703 -547.078125 336.60546875 C-547.49601634 345.31470412 -549.04182175 352.81464655 -552 361 C-552.28746094 361.85078125 -552.57492187 362.7015625 -552.87109375 363.578125 C-561.01043881 386.00654249 -578.55717338 403.09092321 -599.44921875 413.76171875 C-622.20341166 424.06207746 -646.33791307 425.26880294 -670 417 C-678.23909761 413.73502928 -685.56389343 409.57234039 -692.46875 404 C-694.07040131 402.7621046 -694.07040131 402.7621046 -696.6875 402.9375 C-699.25608676 404.11766148 -701.58084206 405.53725334 -704 407 C-705.86711962 407.70016986 -707.73544552 408.39738889 -709.61132812 409.07373047 C-712.37517178 410.1454826 -715.03436105 411.37488329 -717.71875 412.6328125 C-725.01350411 416.021485 -732.35771045 419.2918191 -739.7119751 422.54891968 C-743.66072327 424.29818973 -747.60759212 426.05169205 -751.5546875 427.8046875 C-752.34865936 428.15724106 -753.14263123 428.50979462 -753.96066284 428.87303162 C-761.07086544 432.03053995 -768.18004061 435.19030218 -775.28271484 438.36471558 C-777.06668507 439.16145592 -778.85168507 439.95588926 -780.63671875 440.75024414 C-786.46146612 443.35616528 -792.21300821 446.0487307 -797.88671875 448.97021484 C-799.85593584 449.92979868 -801.80874141 450.71541429 -803.875 451.4375 C-807.40405092 452.68766986 -810.66534035 454.29924 -814 456 C-817.86295779 457.96764891 -821.64316894 459.69654628 -825.72851562 461.12719727 C-828.44641693 462.17153273 -831.05450258 463.38594924 -833.69140625 464.62109375 C-840.9954823 468.01319934 -848.34865714 471.28780952 -855.7119751 474.54891968 C-859.66072327 476.29818973 -863.60759212 478.05169205 -867.5546875 479.8046875 C-868.74564529 480.33351784 -868.74564529 480.33351784 -869.96066284 480.87303162 C-877.07086544 484.03053995 -884.18004061 487.19030218 -891.28271484 490.36471558 C-893.06668507 491.16145592 -894.85168507 491.95588926 -896.63671875 492.75024414 C-902.45883031 495.35498605 -908.2084269 498.04601465 -913.88061523 500.96411133 C-916.48804774 502.2385424 -919.15014197 503.21800859 -921.87890625 504.1953125 C-928.8748915 506.84940635 -935.59744253 510.2290432 -942.22265625 513.69140625 C-944.50963687 514.76895689 -946.77175712 515.705873 -949.125 516.62109375 C-957.52538812 519.94297032 -965.71068066 523.77472177 -973.9375 527.5 C-977.52163698 529.11959443 -981.10645083 530.73768684 -984.69140625 532.35546875 C-986.01736816 532.95411995 -986.01736816 532.95411995 -987.37011719 533.56486511 C-992.664591 535.95328141 -997.96562989 538.32595946 -1003.27734375 540.67578125 C-1004.20476631 541.08623184 -1004.20476631 541.08623184 -1005.15092468 541.50497437 C-1007.94925635 542.74252225 -1010.74900526 543.97674372 -1013.55053711 545.20703125 C-1019.06101502 547.6398414 -1024.47932594 550.18713938 -1029.83666992 552.94213867 C-1032.45958938 554.2247377 -1035.13380546 555.21215769 -1037.87890625 556.1953125 C-1044.10204688 558.55620931 -1050.09004185 561.51371207 -1056 564.5625 C-1059.34044912 566.25632271 -1062.64993343 567.64704115 -1066.1875 568.875 C-1070.43675422 570.35945392 -1074.46641024 572.09946787 -1078.53125 574.03125 C-1084.76063102 576.97025564 -1091.02065116 579.83518151 -1097.30078125 582.6640625 C-1098.19649338 583.06793182 -1099.09220551 583.47180115 -1100.01506042 583.88790894 C-1103.71772866 585.55677224 -1107.42104358 587.22418894 -1111.12524414 588.88964844 C-1113.87206958 590.12515677 -1116.6177379 591.36320826 -1119.36328125 592.6015625 C-1120.59332634 593.1533165 -1120.59332634 593.1533165 -1121.84822083 593.71621704 C-1126.88673821 595.99091567 -1131.83988643 598.39463238 -1136.76066589 600.91439819 C-1138.8138143 601.90973945 -1140.85080999 602.73918197 -1143 603.5 C-1146.13622099 604.61285261 -1149.03779661 605.98277388 -1152 607.5 C-1154.92244607 608.99675429 -1157.77706721 610.35129535 -1160.875 611.4375 C-1164.34641352 612.66681344 -1167.53870192 614.25214706 -1170.8125 615.9375 C-1174.59450812 617.86632414 -1178.30022478 619.55230975 -1182.3125 620.9375 C-1186.5217082 622.39234464 -1190.50157489 624.11585881 -1194.5234375 626.02734375 C-1200.75539594 628.96772054 -1207.01798024 631.83401025 -1213.30078125 634.6640625 C-1214.19648331 635.06792679 -1215.09218536 635.47179108 -1216.01502991 635.88789368 C-1219.71770774 637.55676334 -1223.42103322 639.22418428 -1227.12524414 640.88964844 C-1229.87206958 642.12515677 -1232.6177379 643.36320826 -1235.36328125 644.6015625 C-1236.18331131 644.9693985 -1237.00334137 645.3372345 -1237.84822083 645.71621704 C-1242.88673821 647.99091567 -1247.83988643 650.39463238 -1252.76066589 652.91439819 C-1255.42799368 654.20748611 -1258.14291506 655.19699017 -1260.93359375 656.18359375 C-1264.21649236 657.48061797 -1267.29920505 659.15481667 -1270.41015625 660.81640625 C-1273 662 -1273 662 -1280 664 C-1280 634.3 -1280 604.6 -1280 574 C-1270.0845132 569.0422566 -1260.18648329 564.33868733 -1250 560 C-1246.99585691 558.67595175 -1243.99814782 557.33755753 -1241 556 C-1239.50010703 555.33309257 -1238.00010775 554.66642417 -1236.5 554 C-1235.7575 553.67 -1235.015 553.34 -1234.25 553 C-1232 552 -1229.75 551 -1227.5 550 C-1226.79804504 549.68793106 -1226.09609009 549.37586212 -1225.37286377 549.05433655 C-1223.88546347 548.39343872 -1222.39782899 547.73306741 -1220.90985107 547.07347107 C-1215.5800746 544.70941288 -1210.26345647 542.31753485 -1204.953125 539.91015625 C-1203.21672614 539.1237558 -1201.4803162 538.3373798 -1199.74389648 537.55102539 C-1198.39773758 536.94123337 -1198.39773758 536.94123337 -1197.02438354 536.31912231 C-1183.17197999 530.04484944 -1169.31587834 523.7791387 -1155.4375 517.5625 C-1154.2937793 517.05017822 -1153.15005859 516.53785645 -1151.97167969 516.01000977 C-1144.57186208 512.69823853 -1137.16767969 509.39658053 -1129.75 506.125 C-1125.94032017 504.43403685 -1122.15677883 502.68992612 -1118.375 500.9375 C-1113.94257645 498.88583295 -1109.49767308 496.90286169 -1105 495 C-1099.14870749 492.4252354 -1093.32112238 489.79756047 -1087.49609375 487.1640625 C-1069.72704643 479.14217726 -1051.94573222 471.15826702 -1034.05249023 463.41650391 C-1027.94489438 460.76849707 -1021.92542859 458.03582475 -1016 455 C-1014.37375616 454.29848305 -1012.74714087 453.59765434 -1011.11328125 452.9140625 C-1008.21760009 451.66158673 -1005.36183128 450.32788971 -1002.5 449 C-998.02604488 446.92645459 -993.54079074 444.92110377 -989 443 C-986.86452804 442.05928094 -984.73274444 441.11054819 -982.6015625 440.16015625 C-981.09735599 439.48936146 -979.59279385 438.81936058 -978.08728027 438.15150452 C-972.7758647 435.79493432 -967.47500856 433.41592012 -962.1796875 431.0234375 C-928.38717561 415.77487758 -928.38717561 415.77487758 -914.85107422 409.99365234 C-910.39964754 408.08488201 -906.0370204 406.07598226 -901.72729492 403.86425781 C-899.56393481 402.78181332 -897.34423844 401.84747447 -895.11328125 400.9140625 C-892.21760009 399.66158673 -889.36183128 398.32788971 -886.5 397 C-882.02604488 394.92645459 -877.54079074 392.92110377 -873 391 C-870.86452804 390.05928094 -868.73274444 389.11054819 -866.6015625 388.16015625 C-865.09483446 387.48823699 -863.58778005 386.81704665 -862.0798645 386.14779663 C-856.84311139 383.823581 -851.61423645 381.48249021 -846.390625 379.12890625 C-844.74552616 378.388179 -843.10042516 377.64745653 -841.45532227 376.90673828 C-840.60527618 376.52390686 -839.7552301 376.14107544 -838.87942505 375.74664307 C-825.44477793 369.69644428 -812.00783796 363.65140699 -798.5625 357.625 C-796.83531738 356.85071655 -796.83531738 356.85071655 -795.07324219 356.06079102 C-790.42840541 353.97966737 -785.78229243 351.9017853 -781.12890625 349.83984375 C-777.52744842 348.24119368 -773.94764996 346.59971307 -770.375 344.9375 C-765.94257645 342.88583295 -761.49767308 340.90286169 -757 339 C-753.99561306 337.67650613 -750.9981473 336.3375573 -748 335 C-746.50010703 334.33309257 -745.00010775 333.66642417 -743.5 333 C-742.76652344 332.65453125 -742.03304687 332.3090625 -741.27734375 331.953125 C-739 331 -739 331 -736.50390625 330.421875 C-733.6759737 329.64362796 -732.1116037 329.06132742 -730 327 C-728.98137176 323.0585511 -728.65495365 319.27068814 -728.36328125 315.22265625 C-726.95061672 295.77337095 -714.19970998 276.32337092 -700.5078125 263.15625 C-688.88749046 253.16494507 -675.8575532 245.82747272 -661 242 C-660.34169189 241.82122314 -659.68338379 241.64244629 -659.00512695 241.45825195 C-652.79662201 239.89795937 -646.82134522 239.65224143 -640.4375 239.6875 C-639.38264404 239.69241455 -638.32778809 239.6973291 -637.2409668 239.70239258 C-618.49170494 239.98116544 -599.77763095 244.68781175 -584.89453125 256.69921875 C-582.20467721 258.54606699 -579.96055106 258.29716705 -576.8203125 257.8125 C-572.64963216 256.61097436 -568.94399118 254.64170674 -565.11865234 252.63500977 C-558.49427304 249.17494784 -551.7149495 246.13315539 -544.875 243.125 C-542.54418939 242.09784104 -540.21346028 241.07049712 -537.8828125 240.04296875 C-536.73458008 239.53685059 -535.58634766 239.03073242 -534.40332031 238.50927734 C-528.26971861 235.78919659 -522.16726856 233.00097652 -516.06591797 230.20947266 C-511.40110262 228.07825153 -506.72116928 226.0032753 -502 224 C-496.75926813 221.71533931 -491.56232641 219.3408026 -486.375 216.9375 C-481.94257645 214.88583295 -477.49767308 212.90286169 -473 211 C-470.86452804 210.05928094 -468.73274444 209.11054819 -466.6015625 208.16015625 C-465.09735599 207.48936146 -463.59279385 206.81936058 -462.08728027 206.15150452 C-456.7758647 203.79493432 -451.47500856 201.41592012 -446.1796875 199.0234375 C-412.38717561 183.77487758 -412.38717561 183.77487758 -398.85107422 177.99365234 C-394.39964754 176.08488201 -390.0370204 174.07598226 -385.72729492 171.86425781 C-383.56393481 170.78181332 -381.34423844 169.84747447 -379.11328125 168.9140625 C-376.21760009 167.66158673 -373.36183128 166.32788971 -370.5 165 C-366.02604488 162.92645459 -361.54079074 160.92110377 -357 159 C-354.86452804 158.05928094 -352.73274444 157.11054819 -350.6015625 156.16015625 C-349.09735599 155.48936146 -347.59279385 154.81936058 -346.08728027 154.15150452 C-340.7758647 151.79493432 -335.47500856 149.41592012 -330.1796875 147.0234375 C-296.38717561 131.77487758 -296.38717561 131.77487758 -282.85107422 125.99365234 C-278.39964754 124.08488201 -274.0370204 122.07598226 -269.72729492 119.86425781 C-267.56393481 118.78181332 -265.34423844 117.84747447 -263.11328125 116.9140625 C-260.21760009 115.66158673 -257.36183128 114.32788971 -254.5 113 C-250.02604488 110.92645459 -245.54079074 108.92110377 -241 107 C-238.86452804 106.05928094 -236.73274444 105.11054819 -234.6015625 104.16015625 C-233.09483446 103.48823699 -231.58778005 102.81704665 -230.0798645 102.14779663 C-224.84311139 99.823581 -219.61423645 97.48249021 -214.390625 95.12890625 C-212.74552616 94.388179 -211.10042516 93.64745653 -209.45532227 92.90673828 C-208.60527618 92.52390686 -207.7552301 92.14107544 -206.87942505 91.74664307 C-193.44477793 85.69644428 -180.00783796 79.65140699 -166.5625 73.625 C-165.41104492 73.10881104 -164.25958984 72.59262207 -163.07324219 72.06079102 C-158.42840541 69.97966737 -153.78229243 67.9017853 -149.12890625 65.83984375 C-145.52744842 64.24119368 -141.94764996 62.59971307 -138.375 60.9375 C-133.94257645 58.88583295 -129.49767308 56.90286169 -125 55 C-122.86452804 54.05928094 -120.73274444 53.11054819 -118.6015625 52.16015625 C-117.09483446 51.48823699 -115.58778005 50.81704665 -114.0798645 50.14779663 C-108.84311139 47.823581 -103.61423645 45.48249021 -98.390625 43.12890625 C-96.74552616 42.388179 -95.10042516 41.64745653 -93.45532227 40.90673828 C-92.60527618 40.52390686 -91.7552301 40.14107544 -90.87942505 39.74664307 C-77.44477793 33.69644428 -64.00783796 27.65140699 -50.5625 21.625 C-49.41104492 21.10881104 -48.25958984 20.59262207 -47.07324219 20.06079102 C-42.42840541 17.97966737 -37.78229243 15.9017853 -33.12890625 13.83984375 C-29.52744842 12.24119368 -25.94764996 10.59971307 -22.375 8.9375 C-17.9426535 6.88625127 -13.50258169 4.89108431 -9 3 C-8.37222656 2.7215625 -7.74445313 2.443125 -7.09765625 2.15625 C-2.21614583 0 -2.21614583 0 0 0 Z " fill="#010000" transform="translate(1280,28)"/>
<path d="M0 0 C16.46740769 11.59305502 27.20059155 28.06875077 30.71142578 47.88964844 C31.99474417 57.27459271 31.66780098 66.90211461 29 76 C28.84015625 76.80953125 28.6803125 77.6190625 28.515625 78.453125 C25.03922989 94.5197078 13.19936271 109.5908407 -0.37890625 118.4453125 C-5.13645543 121.26722692 -9.93080886 123.78182935 -15 126 C-15.95003906 126.41636719 -16.90007812 126.83273437 -17.87890625 127.26171875 C-31.85954718 132.4566114 -52.29550069 132.35712816 -65.9921875 126.296875 C-73.19409608 122.92090267 -79.9301882 119.18014671 -86 114 C-86.57621094 113.56558594 -87.15242187 113.13117188 -87.74609375 112.68359375 C-95.77962713 106.40348191 -100.84572751 97.72542 -105.375 88.75 C-105.70878662 88.08887207 -106.04257324 87.42774414 -106.38647461 86.74658203 C-114.03710894 71.03612543 -114.06626492 52.33835836 -108.67578125 35.90234375 C-102.15155067 17.53644611 -89.08251204 3.2867996 -71.875 -5.68359375 C-48.12285953 -16.55923415 -21.79925468 -14.11544428 0 0 Z " fill="#FAFAFA" transform="translate(683,302)"/>
<path d="M0 0 C8.18540168 6.45776959 13.9445241 13.97156039 16.125 24.3125 C17.27265899 38.14251719 15.66367584 48.24570641 7.125 59.3125 C-1.58301509 68.54982581 -12.03964315 73.20804446 -24.75 73.8125 C-35.3969581 73.49488646 -45.39712549 68.83427593 -52.875 61.3125 C-62.01730748 50.51621641 -65.12175948 40.17684181 -64.10253906 26.25390625 C-63.58175373 21.81046747 -62.07816441 18.16461665 -59.875 14.3125 C-59.22144531 13.14654297 -59.22144531 13.14654297 -58.5546875 11.95703125 C-52.47584138 2.04153634 -43.74281691 -4.52897712 -32.35546875 -7.30078125 C-20.64546408 -9.12643552 -9.79563137 -6.72275523 0 0 Z " fill="#FCFCFC" transform="translate(666.875,327.6875)"/>
<path d="M0 0 C0.76828125 0.00064453 1.5365625 0.00128906 2.328125 0.00195312 C16.27270474 0.10867185 27.11658123 5.65359183 37.171875 15.1875 C39.98491619 18.26501514 42.06379942 21.50800443 44 25.1875 C44.38027344 25.88230469 44.76054688 26.57710938 45.15234375 27.29296875 C48.63116661 33.89159005 49.18140855 39.62325206 49.1875 47 C49.19974609 47.76892578 49.21199219 48.53785156 49.22460938 49.33007812 C49.25845066 62.69738571 43.68681219 74.35025627 34.47265625 83.93359375 C24.17331734 93.32177472 11.99771259 97.98478984 -1.94921875 97.43359375 C-15.69607355 96.32469253 -26.44415336 90.82045458 -35.91015625 80.6640625 C-41.00935593 74.6212726 -43.79311862 68.74755985 -46 61.1875 C-46.495 59.7025 -46.495 59.7025 -47 58.1875 C-48.26174644 43.26234484 -47.19158261 30.8751449 -38.04296875 18.60546875 C-27.91870834 6.62283549 -15.81977143 -0.25216079 0 0 Z M-31.30859375 23.94140625 C-38.87924957 33.99481756 -40.50538742 44.85626004 -39 57.1875 C-36.47462651 67.40590941 -30.2477485 76.43709857 -21.6875 82.5625 C-11.70295153 88.58058401 -2.25832092 90.76993275 9.26171875 88.5625 C20.79805148 85.50434789 29.6084451 79.25638786 36 69.1875 C36.86625 67.9809375 36.86625 67.9809375 37.75 66.75 C42.44815486 57.11878254 42.73316621 44.38337701 39.4375 34.3125 C34.5481745 22.7668296 25.48091764 14.87911271 14 10.1875 C-3.00571171 4.01635513 -19.97764157 10.6707086 -31.30859375 23.94140625 Z " fill="#0B0B0B" transform="translate(642,311.8125)"/>
</svg>
